# xmcd
#
# Track frame offsets:
#	150
#	25085
#	43523
#	53453
#	69007
#	111716
#	140540
#	170150
#	207863
#	267168
#
# Disc length: 3866 seconds
#
# Revision: 1
# Processed by: cddbd v1.5.1PL0 Copyright (c) Steve Scherf et al.
# Submitted via: CDex 1.50Beta5
#
DISCID=8a0f180a
DTITLE=ロイヤル・フィルハーモニー・ポップス管弦楽団 - GOLD PRICE 1500『愛と青春のシネマ年鑑』10 スクリーン・クラシックス・ベスト
DYEAR=2002
DGENRE=
TTITLE0=楽劇「ワルキューレ」“ワルキューレの騎行”
TTITLE1=セレナード「未完成交響曲」
TTITLE2=マンドリン協奏曲「クレイマー・クレイマー」
TTITLE3=トゥ・ラヴ・アゲイン/ノクターン
TTITLE4=弦楽六重奏曲第1番 第2楽章「恋人たち」
TTITLE5=第3番 第3楽章
TTITLE6=協奏曲第21番 第2楽章「みじかくも美しく燃え」
TTITLE7=弦楽のためのアダージョ「プラトーン」
TTITLE8=第5番 第4楽章 アダージェット「ベニスに死す」
TTITLE9=ツァラトゥストラはかく語りき〜美しく青きドナウ「2001年宇宙の旅」
EXTD=
EXTT0=
EXTT1=
EXTT2=
EXTT3=
EXTT4=
EXTT5=
EXTT6=
EXTT7=
EXTT8=
EXTT9=
PLAYORDER=
